HIERARCHY
ROOT Hips
{
	OFFSET 0.0000 0.0000 0.0000
	CHANNELS 6 Xposition Yposition Zposition Zrotation Xrotation Yrotation
	JOINT Spine1
	{
		OFFSET -0.0137 5.0038 -0.0537
		CHANNELS 3 Zrotation Xrotation Yrotation
		JOINT Spine2
		{
			OFFSET -0.0000 7.1253 -0.0298
			CHANNELS 3 Zrotation Xrotation Yrotation
			JOINT Chest
			{
				OFFSET -0.0000 7.5501 -0.8160
				CHANNELS 3 Zrotation Xrotation Yrotation
				JOINT Neck1
				{
					OFFSET -0.1817 26.3113 -0.5533
					CHANNELS 3 Zrotation Xrotation Yrotation
					JOINT Neck2
					{
						OFFSET -0.0000 7.7094 2.3026
						CHANNELS 3 Zrotation Xrotation Yrotation
						JOINT Head
						{
							OFFSET -0.0000 6.1289 1.9537
							CHANNELS 3 Zrotation Xrotation Yrotation
							JOINT Jaw
							{
								OFFSET 0.0026 0.4756 3.0949
								CHANNELS 3 Zrotation Xrotation Yrotation
								End Site
								{
									OFFSET 0.0 1.0 0.0
								}
							}
							JOINT LeftEye
							{
								OFFSET 3.2064 5.3802 7.5869
								CHANNELS 3 Zrotation Xrotation Yrotation
								End Site
								{
									OFFSET 0.0 1.0 0.0
								}
							}
							JOINT RightEye
							{
								OFFSET -3.2224 5.3619 7.5582
								CHANNELS 3 Zrotation Xrotation Yrotation
								End Site
								{
									OFFSET 0.0 1.0 0.0
								}
							}
						}
					}
				}
				JOINT LeftShoulder
				{
					OFFSET 1.6217 23.2372 5.1134
					CHANNELS 3 Zrotation Xrotation Yrotation
					JOINT LeftArm
					{
						OFFSET 14.9198 0.0000 -5.5023
						CHANNELS 3 Zrotation Xrotation Yrotation
						JOINT LeftForeArm
						{
							OFFSET 28.7393 0.0000 -0.0026
							CHANNELS 3 Zrotation Xrotation Yrotation
							JOINT LeftHand
							{
								OFFSET 27.0940 -0.0000 0.0026
								CHANNELS 3 Zrotation Xrotation Yrotation
								JOINT LeftHandThumbEnd
								{
									OFFSET 12.2686 -3.2202 4.8331
									CHANNELS 3 Zrotation Xrotation Yrotation
									End Site
									{
										OFFSET 0.0 1.0 0.0
									}
								}
								JOINT LeftHandMiddleEnd
								{
									OFFSET 19.0120 -0.3129 -0.0340
									CHANNELS 3 Zrotation Xrotation Yrotation
									End Site
									{
										OFFSET 0.0 1.0 0.0
									}
								}
							}
						}
					}
				}
				JOINT RightShoulder
				{
					OFFSET -1.3801 23.1803 5.2142
					CHANNELS 3 Zrotation Xrotation Yrotation
					JOINT RightArm
					{
						OFFSET -15.0372 0.0000 -5.5456
						CHANNELS 3 Zrotation Xrotation Yrotation
						JOINT RightForeArm
						{
							OFFSET -28.7366 0.0000 -0.0026
							CHANNELS 3 Zrotation Xrotation Yrotation
							JOINT RightHand
							{
								OFFSET -27.1336 -0.0000 0.0026
								CHANNELS 3 Zrotation Xrotation Yrotation
								JOINT RightHandThumbEnd
								{
									OFFSET -12.2642 -3.2115 4.8040
									CHANNELS 3 Zrotation Xrotation Yrotation
									End Site
									{
										OFFSET 0.0 1.0 0.0
									}
								}
								JOINT RightHandMiddleEnd
								{
									OFFSET -19.0006 -0.3066 -0.0316
									CHANNELS 3 Zrotation Xrotation Yrotation
									End Site
									{
										OFFSET 0.0 1.0 0.0
									}
								}
							}
						}
					}
				}
			}
		}
	}
	JOINT LeftLeg
	{
		OFFSET 10.0432 -8.4345 2.5957
		CHANNELS 3 Zrotation Xrotation Yrotation
		JOINT LeftShin
		{
			OFFSET -0.0000 -43.2218 -0.8029
			CHANNELS 3 Zrotation Xrotation Yrotation
			JOINT LeftFoot
			{
				OFFSET 0.0000 -42.1551 -3.4815
				CHANNELS 3 Zrotation Xrotation Yrotation
				JOINT LeftToeBase
				{
					OFFSET 0.0000 -5.0595 13.2315
					CHANNELS 3 Zrotation Xrotation Yrotation
					End Site
					{
						OFFSET 0.0 1.0 0.0
					}
				}
			}
		}
	}
	JOINT RightLeg
	{
		OFFSET -10.0473 -8.2953 2.6203
		CHANNELS 3 Zrotation Xrotation Yrotation
		JOINT RightShin
		{
			OFFSET 0.0000 -43.3622 -0.8056
			CHANNELS 3 Zrotation Xrotation Yrotation
			JOINT RightFoot
			{
				OFFSET 0.0000 -42.1174 -3.4784
				CHANNELS 3 Zrotation Xrotation Yrotation
				JOINT RightToeBase
				{
					OFFSET -0.0000 -5.0796 13.2842
					CHANNELS 3 Zrotation Xrotation Yrotation
					End Site
					{
						OFFSET 0.0 1.0 0.0
					}
				}
			}
		}
	}
}
MOTION
Frames: 5
Frame Time: 0.033333
-0.6132 99.5492 0.6642 -0.2571 1.7698 0.2804 0.3101 -3.6492 -0.0887 -0.4706 -6.0254 -0.0815 -0.7759 12.9727 -2.3192 1.4965 9.6809 2.4602 -1.0103 -3.4962 -0.9470 -0.6485 -0.0674 -1.4399 0.0214 -0.0111 -0.0366 0.7877 -10.3751 -3.8697 -0.7440 -10.3885 3.7927 -25.5867 11.7285 -12.6003 -54.4499 -13.1145 9.3787 0.6395 -0.4762 -34.1838 172.6672 -60.3990 179.2613 -14.4335 10.4089 13.4951 -61.7489 1.3545 1.7719 28.2486 9.2357 16.1959 41.1350 18.4154 19.6557 -0.4637 0.4495 38.9652 -12.5468 23.8330 -2.2829 16.3617 7.3514 -16.5322 50.2217 -3.6009 -5.6487 9.5653 -4.1655 7.9288 0.0231 1.6396 0.0316 -10.9948 3.3154 5.2293 1.6821 -0.7205 -2.1189 -8.0938 -4.0442 -6.7078 0.0443 1.8215 -0.0157 9.8368 -0.6342 -6.3418 -1.4285 -1.5415 1.0376
-0.6204 99.5642 0.7005 -0.2808 1.7924 0.2589 0.3017 -3.6409 -0.0961 -0.4737 -5.9959 0.0147 -0.7588 12.9249 -2.4022 1.5318 9.5595 2.4442 -0.9992 -3.4936 -0.9362 -0.6306 -0.0581 -1.4601 0.0166 -0.0186 -0.0263 0.7827 -10.3735 -3.8576 -0.7484 -10.3881 3.8018 -25.5561 11.7689 -12.6371 -54.3503 -13.2101 9.3681 0.5369 -0.5433 -34.1351 172.5917 -60.4132 179.2568 -14.5000 10.4208 13.4756 -61.6705 1.3530 1.8580 28.2170 9.2941 16.2049 41.1512 18.1536 19.5494 -0.4647 0.4245 38.8433 -12.4959 23.6150 -2.1328 16.3652 7.3722 -16.5476 50.3811 -3.5227 -5.6114 9.6065 -4.1636 7.9493 0.0051 1.6114 0.0022 -11.0799 3.2932 5.1898 1.6830 -0.7177 -2.1217 -8.0577 -4.0344 -6.6840 0.0338 1.7935 0.0033 9.7378 -0.7199 -6.3534 -1.4352 -1.5652 1.0337
-0.6315 99.5629 0.7131 -0.2881 1.8022 0.2324 0.2978 -3.6298 -0.1115 -0.4805 -5.9796 0.0671 -0.7488 12.9059 -2.4340 1.5859 9.4446 2.4222 -0.9990 -3.5220 -0.9147 -0.6296 0.0259 -1.4830 0.0144 -0.0256 -0.0181 0.7783 -10.3888 -3.8468 -0.7483 -10.4026 3.8078 -25.4950 11.7868 -12.6929 -54.2476 -13.2484 9.2885 0.4878 -0.5902 -34.0379 172.5498 -60.3824 179.2771 -14.5221 10.3944 13.4070 -61.6327 1.3341 1.8593 28.1817 9.3317 16.2037 41.1783 18.0142 19.4964 -0.5028 0.4228 38.7732 -12.4917 23.5351 -2.0949 16.3731 7.3871 -16.5461 50.4506 -3.4716 -5.6129 9.6325 -4.1534 7.9782 -0.0004 1.6133 -0.0098 -11.1258 3.2907 5.1348 1.6866 -0.6636 -2.1217 -8.0592 -4.0308 -6.6569 0.0294 1.7902 0.0096 9.7244 -0.7505 -6.3573 -1.4386 -1.5303 1.0380
-0.6320 99.5578 0.7396 -0.2857 1.8097 0.2099 0.2893 -3.6102 -0.1353 -0.4826 -5.9759 0.0766 -0.7447 12.9003 -2.4184 1.6091 9.3493 2.4009 -0.9871 -3.5511 -0.8954 -0.6322 0.0542 -1.4936 0.0126 -0.0318 -0.0105 0.7756 -10.4085 -3.8378 -0.7490 -10.4236 3.8129 -25.4279 11.7956 -12.7579 -54.1221 -13.2026 9.0631 0.5178 -0.5995 -33.9414 172.5117 -60.2128 179.3578 -14.4918 10.3993 13.3296 -61.6030 1.3365 1.8077 28.1481 9.3528 16.1966 41.2194 17.9232 19.4743 -0.5813 0.4545 38.7555 -12.4322 23.5988 -2.1197 16.3216 7.3807 -16.5188 50.3879 -3.4516 -5.6153 9.6432 -4.1479 7.9981 0.0036 1.6266 -0.0147 -11.1520 3.2848 5.0954 1.6882 -0.6271 -2.1187 -8.0747 -4.0301 -6.6170 0.0249 1.8049 0.0064 9.7532 -0.7711 -6.3467 -1.4394 -1.4931 1.0309
-0.6268 99.5567 0.7536 -0.2862 1.8189 0.2055 0.2757 -3.5939 -0.1239 -0.4786 -5.9773 0.0484 -0.7560 12.9006 -2.4143 1.6400 9.2242 2.3889 -0.9710 -3.5667 -0.8430 -0.6357 0.0700 -1.5177 0.0112 -0.0346 0.0019 0.7772 -10.4152 -3.8244 -0.7531 -10.4352 3.8245 -25.3832 11.7889 -12.8062 -54.0221 -13.2264 8.9292 0.5183 -0.5898 -33.8653 172.5388 -59.9686 179.3853 -14.4787 10.3858 13.2815 -61.6396 1.3282 1.7828 28.1346 9.3503 16.1859 41.2355 17.9090 19.4908 -0.6428 0.5077 38.7712 -12.4071 23.7275 -2.1749 16.3049 7.3799 -16.4961 50.3603 -3.4394 -5.6239 9.6399 -4.1530 8.0195 0.0091 1.6551 -0.0207 -11.1536 3.2964 5.0696 1.6884 -0.6071 -2.1169 -8.0882 -4.0270 -6.5739 0.0240 1.8149 -0.0076 9.8244 -0.7661 -6.3371 -1.4410 -1.4500 1.0308
